<svg xmlns="http://www.w3.org/2000/svg" width="18" height="18" viewBox="0 0 24 24" role="img" aria-label="Up"><g fill="#FFFFFF" fill-rule="evenodd"><path d="M1 5.5H3.8V10.6C3.8 12.4 4.5 13.3 5.8 13.3C7.1 13.3 7.8 12.4 7.8 10.6V5.5H10.6V10.7C10.6 14.1 8.8 16 5.8 16C2.8 16 1 14.1 1 10.7Z"/><path d="M12 5.5H14.8V6.3C15.6 5.6 16.6 5.2 17.8 5.2C20.9 5.2 23 7.5 23 10.6C23 13.7 20.9 16 17.8 16C16.6 16 15.6 15.6 14.8 14.9V19.5H12Z M20.2 10.6C20.2 9.05 19.14 8 17.65 8C16.16 8 15.1 9.05 15.1 10.6C15.1 12.15 16.16 13.2 17.65 13.2C19.14 13.2 20.2 12.15 20.2 10.6Z"/></g></svg>
